<?xml version="1.0" encoding="UTF-8"?>
<svg xmlns="http://www.w3.org/2000/svg" viewBox="0 0 600 600">
  <defs>
    <linearGradient id="goldGradient" x1="489.31" y1="258.22" x2="529.26" y2="258.22" gradientUnits="userSpaceOnUse">
      <stop offset="0" stop-color="#e6d388"/>
      <stop offset="1" stop-color="#8f896e"/>
    </linearGradient>
  </defs>

  <!-- Main leaf shape - teal base -->
  <g id="leaf-base">
    <path d="M176.37,186.19c35.04-46.96,88.06-95.26,118.17-145.5,4.29,12.12,18.39,29.24,25.23,38.31,85.6,93.87,167.76,168.91,127.4,315.49-34.71,99.25-92.43,55.84-132.15,127.91-195.83-17.22-225.26-213.36-138.65-336.21" fill="#3b7e80"/>
  </g>

  <!-- Leaf details - olive green -->
  <g id="leaf-details" fill="#3e6c69">
    <path d="M458.16,297.23c2.6,32.65.81,66.45-10.98,97.25-4.66-2.13-8.73,2.46-13.3,2.89-13.81,1.31-26.37,5.73-39.72,8.11-17.45,3.11-31.54,10.29-42.33,24.49-2.87,3.77-10.86,4.57-9.54,12.01-3.19-.21-3.82.5-6.3,1.08.82,6.97-4.19,9.8-7.54,14.28-4.8,6.44-7.29,14.75-11.1,21.91-7.66,14.42,4.55,17.57-6.73,21.23,5.37,4.86-1.4,20.59,4.4,21.92-7.92,18.74-15.25,38.45-15.72,58.83l-2.01,1.98c-1.24-75.77-5.78-145.1,64.18-195.15l36.49-2.27c39.32-2.45,66.33-46.34,55.53-45.05-32.14,3.41-68.86,19.67-94.09,39.49-.89-9.15,11.86-15.58,18.74-19.29,19.18-12.75,73.26-28.86,57.09-58.5-25.67,13.21,35.06-22.67,21.09-14.12-.27,3.04,1.73,5.98,1.83,8.91Z"/>
    <path d="M217.16,137.25c9.16,4.7,10.17,43.95,12.12,53.66,3.6,24.98,10.97,46.32,28.76,64.96,0,0,15.3,16.19,15.3,16.19,2.79,2.95,2.85,7.2,7.09,8.86,3.37,1.31,7.29,1.36,10.3-1.73.87,12.92-.08,44.54-.63,57.79-3.67-2.37-4.82-5.44-6.86-7.59-53.44-56.55-106.13-104.95-101.57-150.02,1.38-13.7,14.75-18.36,35.48-42.12Z"/>
    <path d="M261.52,388c-8.63,4.23-16.87,9.64-26.14,12.21-1.53-1.39-.92-4.45-2.13-5.87,2.78.15,5.66-.26,8.35-2.24-42.01-35.09-103.82-57.1-105.08-120.89-.34-4.57,2.74-9.07,3.19-13.59,1.07.24,3-1.97,3.29.13-.76,1.59,10.19,19.81,10.88,21.52,24.51,53.75,72.54,70.98,107.64,108.73Z"/>
    <path d="M339.54,100.26c-1.67,1.38,3.43,78.12-19.1,113.91-5.09,8.08-2.88,50.84-1.44,62.23l1.24,28.85c-1.2,3.99-16.56,25.7-22.45,34.96-.66-25.55-.23-100.06-.11-126.7.01-3.7,4.2-5.34,6.22-7.61,29-28.17,21.59-82.87,23.07-119.35l12.57,13.72Z"/>
    <path d="M413.39,188.22c5,6.67,8.66,14.26,13.12,21.15-22.56,16.52-4.53,20.63-36.31,56.13l-21.11,23.57c-3.01,3.36-4.92,7.29-8.91,10.13-8.41,5.97-13.44,15.3-19.62,23.27-3.65,4.71-6.91,8.67-8.3,14.69-2.81,12.14-11.11,10.23-7.83,18.34-11.99,7.75-24.74,14.97-38.17,19.8,1.76-12.48,8.35-5.32,12.55-12.72,15.07-65.86,100.82-99.65,112.75-175.49l1.82,1.13Z"/>
    <path d="M291.31,516v64.23h-2c-4.7-37.38-40.31-64.04-68.27-85.54-.52-.86.56-1.09,1.02-.96,5.08-.93,21.4,5.53,25.25,9.32,5.73,5.35,10.09,8.67,17.67,10.57,4.8,1.21,22.45,3.63,26.33,2.38Z"/>
    <path d="M291.31,580.23c.01,1.04-.19,2.18-.28,3.22-1.41-.12-1.52-2.17-1.72-3.22h2Z" fill="#9aab83"/>
    <path d="M315.25,367.34l-.51,12.28c.05-1.27-8.59,36.21,8.4,36.46-10.64,13.08-17.43,28.6-25.27,44.06l-.64-76.76c-2.54-.39-4.19,1.23-6.07,1.79l-3.7-2.97c7.51-7.32,18.67-9.78,27.78-14.88Z"/>
    <path d="M266.37,392.28c.17,4.52,4.46,6.27,7.58,9.27,5.24,5.05,9.9,11.2,16.89,12.66-.17,15.18.98,30.2-.73,46.25-7.99-19.18-21.63-46.56-39.58-56.96l-1.51-3.43c6.01-2.61,11.09-5.68,17.36-7.8Z"/>
    <path d="M418.01,373.27c-14.61,6.24-30.5,7.79-46.92,7.32l11.18-8.39,35.74,1.08Z"/>
    <path d="M290.31,339.23h-1c1.3-1.6,1.07-.63,1,0Z" fill="#3b7e80"/>
    <path d="M289.31,339.23h1c-.23,1.1-.92.84-1,0Z" fill="#cac582"/>
  </g>

  <!-- Gold accents -->
  <g id="gold-accents" fill="#e6d388">
    <path d="M453.51,340.73c-19.35,29.83-46.61,42.05-82.42,39.85,0,0-9.62.55-11.68-.36-35.02,21.48-45.32,41.88-61.53,79.93l-.64-76.76c-2.54-.39-4.19,1.23-6.07,1.79-.94,24.18.94,50.81-1.06,75.28-8.01-19.22-21.62-46.53-39.58-56.96-1.18,1.03-2.96,1.57-3.69,3.28,55.46,49.27,42.66,115.73,44.55,181.42,4.08.63,6.43-.33,5.91-5-1.22-75.71-5.84-145.05,64.18-195.15l36.49-2.27c39.32-2.45,66.33-46.34,55.53-45.05Z"/>
    <path d="M225.18,386.89c3,2.02,5.73,4.7,8.07,7.44,2.78.15,5.66-.26,8.35-2.24-3.73-4.1-8.12-6.85-12.21-9.96-40.77-27.69-92.15-55.27-92.87-110.93-.43-.07-.97.22-1.39.11-12.84,55.62,51.57,89.59,90.05,115.58Z"/>
    <path d="M557.56,186.79c-10.51-24-67.14-9.43-85.25-4.45-13.7,3.72-30.47,11.04-43.96,12.9-.29,2.45-.45,6.74,3.62,6.04,10.94-3.11,21.43-7.5,32.4-9.51,14.83-2.71,53.52-9.21,63.37,5.64,8.73,13.17-9.66,27.08-7.52,30.22,3.27,4.8,11.86-11.76,13.18-16.04,6.97-30.09-32.82-29.07-53.14-26.69,60.29-16.79,104.83-5.13,48.71,50.51.04.93,2.51,2.23,3.6,1.14,12.63-12.59,32.5-31.5,24.98-49.77Z"/>
    <path d="M124.29,361.68c4.74-2.33,7.13-4.83,3.92-10.3-4.05,2.85-7.86,4.94-11.86,6.96,1.53-.77-10.17,7.03-6.77,10.65,5.28-1.52,9.83-2.48,14.71-7.31Z"/>
    <path d="M472.42,271.19c-71.84,47.16-315.96,185.98-393.12,177.24-49.3-2.62.82-53.44,17.55-66.5.99-.88.93-2.79.74-3.58-.19-.79-2.67-.84-3.54-.1-42.68,34.39-67.85,84.65,13.24,73.23-14.45,5.27-82.42,20.73-73.34-12.59,6.9-25.32,48-52.33,46.04-55.88-.37-.67-2.26-1.28-3.35-.35-50.16,38.11-79.46,95.54,13.13,78.25,62.76-14.63,139.58-53.02,197.71-78.69,44.22-25.96,92.37-47.09,135.83-75.04,7.84-2.95,31.4-18.49,35.12-20.19-.69.45-1.39.89-2.09,1.32,1.63-1,2.23-1.38,2.09-1.32,6.13-5.46,16.92-7.97,20.89-15.62-1.99-1.63-4.44-2.17-6.89-.19Z"/>
    <path d="M290.3,367.38c2.81-1.33,6.98-.66,8.51-4.8,3.19-8.63,5.02-18.44,9.55-26.4,19.5-34.3,52.52-54.79,80.96-96.74,10.75-15.85,18.92-33.16,22.25-52.34-1.21-2.71-2.66-5.3-4.35-7.75l-2.26-.97c-1.76,20.81-8.98,41.66-21.27,59-15.53,21.93-35.41,40.31-53.68,60.32-3.12,3.42-5.64,6.71-9.77,7.55.35,2.76-12.65,18.09-17.6,27.81-1.25,2.46-2.62,4.72-4.86,7.15l-.45-39.95.34-86.75c.01-3.7,4.2-5.34,6.22-7.61,29.02-28.29,21.56-82.7,23.08-119.35-1.77-1.93-5.6-5.42-7.19-7.54-2.08,35.65,8.28,95.62-21.75,122.92-2.19-8.47,2.96-55.01-3.29-54.1-1.59-.22-3.83.82-3.83,3.4.05,13.57-.5,139.28.36,148.97l-1.15,36.78c-3.67-2.37-5.5-4.96-6.86-7.59-17.17-33.65-72.73-69.92-83.8-104.86-7.73-.62-16.83-37.16-17.77-45.16-1.94,1.72-4.95,4.22-5.3,6.83,9.58,63.91,67.84,96.51,102.04,146.07,6.26,10.68,9.07,23.28,11.89,35.12ZM290.31,339.23c-.23,1.1-.92.84-1,0,1.3-1.6,1.07-.63,1,0Z"/>
  </g>

  <!-- Gold circle accent -->
  <circle cx="509.29" cy="258.22" r="20" fill="url(#goldGradient)"/>
</svg>
